<?xml version="1.0" encoding="utf-8"?>
<!-- Generator: Adobe Illustrator 21.1.0, SVG Export Plug-In . SVG Version: 6.00 Build 0)  -->
<svg version="1.1" id="Layer_1" xmlns="http://www.w3.org/2000/svg" xmlns:xlink="http://www.w3.org/1999/xlink" x="0px" y="0px"
	 viewBox="0 0 1128.1 572.2" style="enable-background:new 0 0 1128.1 572.2;" xml:space="preserve">
<style type="text/css">
	.st0{fill:#532F8C;}
	.st1{fill-rule:evenodd;clip-rule:evenodd;fill:#454545;}
	.st2{fill:url(#SVGID_1_);}
	.st3{fill:url(#SVGID_2_);}
	.st4{fill:url(#SVGID_3_);}
	.st5{fill:url(#SVGID_4_);}
	.st6{fill:url(#SVGID_5_);}
	.st7{fill:url(#SVGID_6_);}
	.st8{fill-rule:evenodd;clip-rule:evenodd;fill:url(#SVGID_7_);}
	.st9{fill:url(#SVGID_8_);}
	.st10{fill:url(#SVGID_9_);}
	.st11{fill:url(#SVGID_10_);}
	.st12{clip-path:url(#Mask_1_);fill:url(#Highlight_1_);}
	.st13{display:none;}
	.st14{display:inline;}
	.st15{fill:#454545;}
	.st16{fill:#FFFFFF;}
</style>
<title>ef_header_logo_1</title>
<g id="Layer_2">
	<g id="Layer_1-2">
		<g>
			<path class="st0" d="M0,572.2v-84.6h69.3v11.8H13.1v23.7H66v11.8H13.1v25.5h57.3v11.8L0,572.2z"/>
			<path class="st0" d="M112.5,572.2v-72.8H80.2v-11.8h78v11.8h-32.6v72.8H112.5z"/>
			<path class="st0" d="M170.6,572.2v-84.6h69.3v11.8h-56.2v23.7h52.9v11.8h-52.9v25.5H241v11.8L170.6,572.2z"/>
			<path class="st0" d="M270.8,572.2h-13.1v-84.6h46.7c18.6,0,28.3,8,28.3,23.7c0,9.3-3.3,14.6-11.9,19.8c8.8,4.3,10.3,8,11,27.3
				c0.5,9.5,1.4,11.3,5.1,11v2.8h-16.1c-1.4-5.2-1.4-6.2-2.2-16.9c-0.9-14.2-4.7-18.5-16.5-18.8h-31.3V572.2z M303.2,525.5
				c5.2,0,8.4-0.6,10.9-2c3.4-2,5.5-6.2,5.5-11.4s-2-9.4-5.5-11.4c-2.5-1.4-5.7-2-10.9-2h-32.5v26.9L303.2,525.5z"/>
			<path class="st0" d="M423.3,572.2L367,503.3v68.9h-13v-84.6h16.4l55.6,68.2v-68.2h13.1v84.6L423.3,572.2z"/>
			<path class="st0" d="M477.4,547.8l-11,24.3h-14.9l39.3-84.6h14.7l39.6,84.6h-15.7l-11-24.3H477.4z M497.6,502.1l-15.5,34.6h31.2
				L497.6,502.1z"/>
			<path class="st0" d="M556.2,572.2v-84.6h13.1v72.8h52.9v11.8L556.2,572.2z"/>
			<path class="st0" d="M673.7,572.2v-84.6h65.7v11.8h-52.6v23.9h46.2V535h-46.2v37.2L673.7,572.2z"/>
			<path class="st0" d="M752.3,572.2v-84.6h13.1v72.8h52.9v11.8L752.3,572.2z"/>
			<path class="st0" d="M852.9,547.8l-11,24.3H827l39.3-84.6H881l39.6,84.6h-15.7l-11-24.3H852.9z M873.2,502.1l-15.5,34.6h31.2
				L873.2,502.1z"/>
			<path class="st0" d="M1023.8,572.2v-69.5l-34.1,69.5h-11.7l-33.2-69.5v69.5h-13.1v-84.6h18.8l33.9,71.5l34.4-71.5h18.1v84.6
				H1023.8z"/>
			<path class="st0" d="M1057.7,572.2v-84.6h69.3v11.8h-56.2v23.7h52.9v11.8h-52.9v25.5h57.3v11.8L1057.7,572.2z"/>
		</g>
	</g>
</g>
<g id="OuterBeval">
	<g>
		<path class="st1" d="M562.8,431.6c-85.6,0-155.3-69.7-155.3-155.3c0-40.8,12.6-77.1,36.4-104.9c24.1-28.1,58.5-46.2,99.5-52.3
			l4.1-0.6l-2,3.6c-6,10.9-9.6,21.6-11.4,33.8l-0.2,1.4l-1.4,0.3c-46,8.8-79.2,47.3-87,100.8h87.9v35.8h-87.9
			c8.7,57.6,58.7,100.7,117.3,100.7c47.5,0,90.3-28.2,109-71.8l0.5-1.2h39l-0.9,2.7C689.5,388.6,630.2,431.6,562.8,431.6z
			 M645.1,182.5c1.6-1,12.5-8.5,25.2-25l1.6-2.1l1.6,2.2c19.1,25.7,44.5,66,44.6,118.8c0,5.3-0.3,10.7-0.8,16.1l-0.2,1.8H590v-35.8
			h90.1c-4.5-31.3-16-57-33.4-74.4"/>
		<path class="st1" d="M671.9,158.7c18.8,25.2,44.1,65.1,44.2,117.6c0,5.5-0.3,10.7-0.8,15.9h-20.7h-12.1H592v-31.8h90.4
			c-3.9-29.3-14.1-57.7-34.3-77.9C648.1,182.5,657.5,177.5,671.9,158.7z M531.4,292.2v-31.8h-88.2c6.8-51.6,38.3-95.1,88.9-104.8
			c2-14.2,6.3-25,11.6-34.5c-83.2,12.4-134.2,73.6-134.2,155.2c0,84.6,68.6,153.3,153.3,153.3c68,0,125.7-44.3,145.7-105.7h-34.8
			c-18.5,43-61.2,73-110.9,73c-61.2,0-111.8-45.7-119.6-104.8H531.4z"/>
		<path class="st1" d="M543.8,384.1V269.6c0-2.6,0-5.2-0.1-7.8c-0.1-9-0.2-18.4,1.1-27.6c6.4-44.8,39.5-67.5,68.8-87.6
			c25.7-17.6,50.1-34.3,54.3-63.2L669,76l2.8,6.9c19.4,47.4-13,74.5-44.3,100.7c-24.6,20.6-47.9,40.1-47.9,68.8v131.7H543.8z"/>
		<path class="st1" d="M577.6,382h-31.8V269.6c0-11.8-0.7-23.5,1-35.2c11.8-82.5,113.7-87,123.1-150.8
			c33.5,82-92.3,101.3-92.3,168.7V382z"/>
		<path class="st1" d="M543.8,189.4c-3.2-69.8,29.1-90,60.2-109.4c25.1-15.7,48.9-30.5,52.4-71.3l0.7-7.7l3.2,7
			c12.5,27.1,12.9,48.9,1.4,68.6c-10.2,17.5-28.8,31.3-48.4,46c-24.9,18.6-50.7,37.8-65.6,67.6l-3.5,7L543.8,189.4z"/>
		<path class="st1" d="M658.4,8.8c43.3,93.8-73.2,101.7-112.6,180.4C540.1,64,650.6,101.2,658.4,8.8z"/>
	</g>
	<g>
		
			<radialGradient id="SVGID_1_" cx="878.8561" cy="251.103" r="285.4999" gradientTransform="matrix(1 0 0 1 -385 129)" gradientUnits="userSpaceOnUse">
			<stop  offset="2.809000e-02" style="stop-color:#4D285A"/>
			<stop  offset="0.2865" style="stop-color:#785E9E"/>
			<stop  offset="0.4831" style="stop-color:#AD86BC"/>
			<stop  offset="0.6517" style="stop-color:#C6AFD4"/>
			<stop  offset="0.689" style="stop-color:#C8ACCE"/>
			<stop  offset="0.7372" style="stop-color:#CFA4BE"/>
			<stop  offset="0.764" style="stop-color:#D49EB2"/>
			<stop  offset="0.882" style="stop-color:#E3BBAC"/>
			<stop  offset="1" style="stop-color:#F8CF87"/>
		</radialGradient>
		<path class="st2" d="M562.8,431.6c-85.6,0-155.3-69.7-155.3-155.3c0-40.8,12.6-77.1,36.4-104.9c24.1-28.1,58.5-46.2,99.5-52.3
			l4.1-0.6l-2,3.6c-6,10.9-9.6,21.6-11.4,33.8l-0.2,1.4l-1.4,0.3c-46,8.8-79.2,47.3-87,100.8h87.9v35.8h-87.9
			c8.7,57.6,58.7,100.7,117.3,100.7c47.5,0,90.3-28.2,109-71.8l0.5-1.2h39l-0.9,2.7C689.5,388.6,630.2,431.6,562.8,431.6z
			 M645.1,182.5c1.6-1,12.5-8.5,25.2-25l1.6-2.1l1.6,2.2c19.1,25.7,44.5,66,44.6,118.8c0,5.3-0.3,10.7-0.8,16.1l-0.2,1.8H590v-35.8
			h90.1c-4.5-31.3-16-57-33.4-74.4"/>
		
			<radialGradient id="SVGID_2_" cx="878.8561" cy="251.103" r="285.4999" gradientTransform="matrix(1 0 0 1 -385 129)" gradientUnits="userSpaceOnUse">
			<stop  offset="2.809000e-02" style="stop-color:#4D285A"/>
			<stop  offset="0.2865" style="stop-color:#785E9E"/>
			<stop  offset="0.4831" style="stop-color:#AD86BC"/>
			<stop  offset="0.6517" style="stop-color:#C6AFD4"/>
			<stop  offset="0.689" style="stop-color:#C8ACCE"/>
			<stop  offset="0.7372" style="stop-color:#CFA4BE"/>
			<stop  offset="0.764" style="stop-color:#D49EB2"/>
			<stop  offset="0.882" style="stop-color:#E3BBAC"/>
			<stop  offset="1" style="stop-color:#F8CF87"/>
		</radialGradient>
		<path class="st3" d="M671.9,158.7c18.8,25.2,44.1,65.1,44.2,117.6c0,5.5-0.3,10.7-0.8,15.9h-20.7h-12.1H592v-31.8h90.4
			c-3.9-29.3-14.1-57.7-34.3-77.9C648.1,182.5,657.5,177.5,671.9,158.7z M531.4,292.2v-31.8h-88.2c6.8-51.6,38.3-95.1,88.9-104.8
			c2-14.2,6.3-25,11.6-34.5c-83.2,12.4-134.2,73.6-134.2,155.2c0,84.6,68.6,153.3,153.3,153.3c68,0,125.7-44.3,145.7-105.7h-34.8
			c-18.5,43-61.2,73-110.9,73c-61.2,0-111.8-45.7-119.6-104.8H531.4z"/>
		
			<radialGradient id="SVGID_3_" cx="878.8561" cy="251.103" r="285.4999" gradientTransform="matrix(1 0 0 1 -385 129)" gradientUnits="userSpaceOnUse">
			<stop  offset="2.809000e-02" style="stop-color:#4D285A"/>
			<stop  offset="0.2865" style="stop-color:#785E9E"/>
			<stop  offset="0.4831" style="stop-color:#AD86BC"/>
			<stop  offset="0.6517" style="stop-color:#C6AFD4"/>
			<stop  offset="0.689" style="stop-color:#C8ACCE"/>
			<stop  offset="0.7372" style="stop-color:#CFA4BE"/>
			<stop  offset="0.764" style="stop-color:#D49EB2"/>
			<stop  offset="0.882" style="stop-color:#E3BBAC"/>
			<stop  offset="1" style="stop-color:#F8CF87"/>
		</radialGradient>
		<path class="st4" d="M543.8,384.1V269.6c0-2.6,0-5.2-0.1-7.8c-0.1-9-0.2-18.4,1.1-27.6c6.4-44.8,39.5-67.5,68.8-87.6
			c25.7-17.6,50.1-34.3,54.3-63.2L669,76l2.8,6.9c19.4,47.4-13,74.5-44.3,100.7c-24.6,20.6-47.9,40.1-47.9,68.8v131.7H543.8z"/>
		
			<radialGradient id="SVGID_4_" cx="878.8561" cy="251.103" r="285.4999" gradientTransform="matrix(1 0 0 1 -385 129)" gradientUnits="userSpaceOnUse">
			<stop  offset="2.809000e-02" style="stop-color:#4D285A"/>
			<stop  offset="0.2865" style="stop-color:#785E9E"/>
			<stop  offset="0.4831" style="stop-color:#AD86BC"/>
			<stop  offset="0.6517" style="stop-color:#C6AFD4"/>
			<stop  offset="0.689" style="stop-color:#C8ACCE"/>
			<stop  offset="0.7372" style="stop-color:#CFA4BE"/>
			<stop  offset="0.764" style="stop-color:#D49EB2"/>
			<stop  offset="0.882" style="stop-color:#E3BBAC"/>
			<stop  offset="1" style="stop-color:#F8CF87"/>
		</radialGradient>
		<path class="st5" d="M577.6,382h-31.8V269.6c0-11.8-0.7-23.5,1-35.2c11.8-82.5,113.7-87,123.1-150.8
			c33.5,82-92.3,101.3-92.3,168.7V382z"/>
		
			<radialGradient id="SVGID_5_" cx="878.8561" cy="251.103" r="285.4999" gradientTransform="matrix(1 0 0 1 -385 129)" gradientUnits="userSpaceOnUse">
			<stop  offset="2.809000e-02" style="stop-color:#4D285A"/>
			<stop  offset="0.2865" style="stop-color:#785E9E"/>
			<stop  offset="0.4831" style="stop-color:#AD86BC"/>
			<stop  offset="0.6517" style="stop-color:#C6AFD4"/>
			<stop  offset="0.689" style="stop-color:#C8ACCE"/>
			<stop  offset="0.7372" style="stop-color:#CFA4BE"/>
			<stop  offset="0.764" style="stop-color:#D49EB2"/>
			<stop  offset="0.882" style="stop-color:#E3BBAC"/>
			<stop  offset="1" style="stop-color:#F8CF87"/>
		</radialGradient>
		<path class="st6" d="M543.8,189.4c-3.2-69.8,29.1-90,60.2-109.4c25.1-15.7,48.9-30.5,52.4-71.3l0.7-7.7l3.2,7
			c12.5,27.1,12.9,48.9,1.4,68.6c-10.2,17.5-28.8,31.3-48.4,46c-24.9,18.6-50.7,37.8-65.6,67.6l-3.5,7L543.8,189.4z"/>
		
			<radialGradient id="SVGID_6_" cx="878.8561" cy="251.103" r="285.4999" gradientTransform="matrix(1 0 0 1 -385 129)" gradientUnits="userSpaceOnUse">
			<stop  offset="2.809000e-02" style="stop-color:#4D285A"/>
			<stop  offset="0.2865" style="stop-color:#785E9E"/>
			<stop  offset="0.4831" style="stop-color:#AD86BC"/>
			<stop  offset="0.6517" style="stop-color:#C6AFD4"/>
			<stop  offset="0.689" style="stop-color:#C8ACCE"/>
			<stop  offset="0.7372" style="stop-color:#CFA4BE"/>
			<stop  offset="0.764" style="stop-color:#D49EB2"/>
			<stop  offset="0.882" style="stop-color:#E3BBAC"/>
			<stop  offset="1" style="stop-color:#F8CF87"/>
		</radialGradient>
		<path class="st7" d="M658.4,8.8c43.3,93.8-73.2,101.7-112.6,180.4C540.1,64,650.6,101.2,658.4,8.8z"/>
	</g>
</g>
<g id="Icon">
	<g>
		<linearGradient id="SVGID_7_" gradientUnits="userSpaceOnUse" x1="409.533" y1="275.3304" x2="716.0932" y2="275.3304">
			<stop  offset="1.605297e-02" style="stop-color:#4F3387"/>
			<stop  offset="2.809000e-02" style="stop-color:#4F3387"/>
			<stop  offset="0.2865" style="stop-color:#785E9E"/>
			<stop  offset="0.4831" style="stop-color:#AD86BC"/>
			<stop  offset="0.6517" style="stop-color:#C6AFD4"/>
			<stop  offset="0.689" style="stop-color:#C8ACCE"/>
			<stop  offset="0.7372" style="stop-color:#CFA4BE"/>
			<stop  offset="0.764" style="stop-color:#D49EB2"/>
			<stop  offset="0.882" style="stop-color:#E3BBAC"/>
		</linearGradient>
		<path class="st8" d="M671.9,158.7c18.8,25.2,44.1,65.1,44.2,117.6c0,5.5-0.3,10.7-0.8,15.9h-20.7h-12.1H592v-31.8h90.4
			c-3.9-29.3-14.1-57.7-34.3-77.9C648.1,182.5,657.5,177.5,671.9,158.7z M531.4,292.2v-31.8h-88.2c6.8-51.6,38.3-95.1,88.9-104.8
			c2-14.2,6.3-25,11.6-34.5c-83.2,12.4-134.2,73.6-134.2,155.2c0,84.6,68.6,153.3,153.3,153.3c68,0,125.7-44.3,145.7-105.7h-34.8
			c-18.5,43-61.2,73-110.9,73c-61.2,0-111.8-45.7-119.6-104.8H531.4z"/>
		<path class="st1" d="M577.6,382h-31.8V269.6c0-11.8-0.7-23.5,1-35.2c11.8-82.5,113.7-87,123.1-150.8
			c33.5,82-92.3,101.3-92.3,168.7V382z"/>
		<path class="st1" d="M658.4,8.8c43.3,93.8-73.2,101.7-112.6,180.4C540.1,64,650.6,101.2,658.4,8.8z"/>
	</g>
	<g>
		
			<linearGradient id="SVGID_8_" gradientUnits="userSpaceOnUse" x1="931.6901" y1="170.086" x2="1060.0013" y2="-31.8064" gradientTransform="matrix(1 0 0 1 -385 129)">
			<stop  offset="1.605297e-02" style="stop-color:#4F3387"/>
			<stop  offset="2.809000e-02" style="stop-color:#4F3387"/>
			<stop  offset="0.2912" style="stop-color:#785E9E"/>
			<stop  offset="0.4421" style="stop-color:#8468A5"/>
			<stop  offset="0.5552" style="stop-color:#AD86BC"/>
			<stop  offset="0.6517" style="stop-color:#C6AFD4"/>
			<stop  offset="0.689" style="stop-color:#C8ACCE"/>
			<stop  offset="0.7372" style="stop-color:#CFA4BE"/>
			<stop  offset="0.764" style="stop-color:#D49EB2"/>
			<stop  offset="0.882" style="stop-color:#E3BBAC"/>
		</linearGradient>
		<path class="st9" d="M671.9,158.7c18.8,25.2,44.1,65.1,44.2,117.6c0,5.5-0.3,10.7-0.8,15.9h-20.7h-12.1H592v-31.8h90.4
			c-3.9-29.3-14.1-57.7-34.3-77.9C648.1,182.5,657.5,177.5,671.9,158.7z M531.4,292.2v-31.8h-88.2c6.8-51.6,38.3-95.1,88.9-104.8
			c2-14.2,6.3-25,11.6-34.5c-83.2,12.4-134.2,73.6-134.2,155.2c0,84.6,68.6,153.3,153.3,153.3c68,0,125.7-44.3,145.7-105.7h-34.8
			c-18.5,43-61.2,73-110.9,73c-61.2,0-111.8-45.7-119.6-104.8H531.4z"/>
		
			<linearGradient id="SVGID_9_" gradientUnits="userSpaceOnUse" x1="931.6901" y1="170.086" x2="1060.0013" y2="-31.8064" gradientTransform="matrix(1 0 0 1 -385 129)">
			<stop  offset="1.605297e-02" style="stop-color:#4F3387"/>
			<stop  offset="2.809000e-02" style="stop-color:#4F3387"/>
			<stop  offset="0.2912" style="stop-color:#785E9E"/>
			<stop  offset="0.4421" style="stop-color:#8468A5"/>
			<stop  offset="0.5552" style="stop-color:#AD86BC"/>
			<stop  offset="0.6517" style="stop-color:#C6AFD4"/>
			<stop  offset="0.689" style="stop-color:#C8ACCE"/>
			<stop  offset="0.7372" style="stop-color:#CFA4BE"/>
			<stop  offset="0.764" style="stop-color:#D49EB2"/>
			<stop  offset="0.882" style="stop-color:#E3BBAC"/>
		</linearGradient>
		<path class="st10" d="M577.6,382h-31.8V269.6c0-11.8-0.7-23.5,1-35.2c11.8-82.5,113.7-87,123.1-150.8
			c33.5,82-92.3,101.3-92.3,168.7V382z"/>
		
			<linearGradient id="SVGID_10_" gradientUnits="userSpaceOnUse" x1="931.6901" y1="170.086" x2="1060.0013" y2="-31.8064" gradientTransform="matrix(1 0 0 1 -385 129)">
			<stop  offset="1.605297e-02" style="stop-color:#4F3387"/>
			<stop  offset="2.809000e-02" style="stop-color:#4F3387"/>
			<stop  offset="0.2912" style="stop-color:#785E9E"/>
			<stop  offset="0.4421" style="stop-color:#8468A5"/>
			<stop  offset="0.5552" style="stop-color:#AD86BC"/>
			<stop  offset="0.6517" style="stop-color:#C6AFD4"/>
			<stop  offset="0.689" style="stop-color:#C8ACCE"/>
			<stop  offset="0.7372" style="stop-color:#CFA4BE"/>
			<stop  offset="0.764" style="stop-color:#D49EB2"/>
			<stop  offset="0.882" style="stop-color:#E3BBAC"/>
		</linearGradient>
		<path class="st11" d="M658.4,8.8c43.3,93.8-73.2,101.7-112.6,180.4C540.1,64,650.6,101.2,658.4,8.8z"/>
	</g>
</g>
<g id="Highloight">
	<defs>
		<path id="Mask" d="M671.9,158.7c18.8,25.2,44.1,65.1,44.2,117.6c0,5.5-0.3,10.7-0.8,15.9h-20.7h-12.1H592v-31.8h90.4
			c-3.9-29.3-14.1-57.7-34.3-77.9C648.1,182.5,657.5,177.5,671.9,158.7z M531.4,292.2l-18.2-43.9h-88.2c25-39.5,56.5-83,107.2-92.6
			c2-14.2,6.3-25,11.6-34.5c-83.2,12.4-134.2,73.6-134.2,155.2c0,84.6,68.6,153.3,153.3,153.3c68,0,125.7-44.3,145.7-105.7h-34.8
			c-18.5,43-61.2,73-110.9,73c-61.2,0-111.8-45.7-119.6-104.8H531.4z M576.8,381.2V252.3c0-30,24.9-50.8,48.9-70.9
			c15.3-12.8,31.1-26.1,40.4-41.5c5-8.3,7.8-16.5,8.5-25.2c0.8-8.9-0.7-18.1-4.4-28c-5.6,28.4-29.6,44.9-55,62.3
			c-14.9,10.2-30.2,20.7-42.6,34.1c-14,15.1-22.1,32-24.9,51.5c-1.3,9-1.2,18.3-1.1,27.2c0,2.6,0.1,5.2,0.1,7.8v111.7H576.8z
			 M611.6,120.3c19.4-14.4,37.7-28.1,47.6-45.1c10.6-18.2,10.6-38.4-0.3-63.2c-4.5,39.8-28.3,54.7-53.4,70.4
			c-30,18.8-61.1,38.1-59,103.8C562,157.2,588.3,137.6,611.6,120.3z"/>
	</defs>
	<clipPath id="Mask_1_">
		<use xlink:href="#Mask"  style="overflow:visible;"/>
	</clipPath>
	<linearGradient id="Highlight_1_" gradientUnits="userSpaceOnUse" x1="580.7571" y1="199.3428" x2="671.3655" y2="42.4505">
		<stop  offset="0.3093" style="stop-color:#FFFFFF;stop-opacity:0"/>
		<stop  offset="0.5499" style="stop-color:#FFFACD"/>
		<stop  offset="0.9247" style="stop-color:#FFFFFF;stop-opacity:0.307"/>
		<stop  offset="1" style="stop-color:#FFFFFF;stop-opacity:0"/>
	</linearGradient>
	<path id="Highlight" class="st12" d="M540.3,385.2c0-11.8-8.6-219.3-3.5-229.9c160.5-332,253.8-158,126.1,9.9
		c-98.5,32.8-116.8,120.4-116.8,220"/>
</g>
<g class="st13">
	<g class="st14">
		<path class="st15" d="M667.4,147.5c18.5,24.9,43.4,64,43.5,115.7c0,5.2-0.3,10.4-0.8,15.6H588.8v-31.2h89
			c-3.8-28.9-13.9-56.8-33.8-76.6C643.9,170.9,653.2,165.9,667.4,147.5z M529.1,278.8v-31.2h-86.8c6.7-50.8,37.7-93.6,87.5-103.1
			c1.6-11.9,5.5-23.5,11.4-33.9c-81.8,12.2-132,72.4-132,152.7c0.1,83.3,67.6,150.8,151,150.7c65.2,0,123-42,143.2-103.9h-34.3
			c-25.9,60.3-95.7,88.1-156,62.3c-38.4-16.5-65.3-52-70.9-93.5H529.1z"/>
		<path class="st15" d="M574.5,367.2h-31.2V256.6c0-11.6-0.7-23.1,1-34.6c11.6-81.2,111.9-85.6,121.1-148.4
			c33,80.7-90.9,99.7-90.9,166L574.5,367.2z"/>
		<path class="st15" d="M654.1,0c42.6,92.3-72,100.1-110.8,177.6C537.7,54.3,646.4,90.9,654.1,0z"/>
	</g>
	<g class="st14">
		<path class="st16" d="M667.4,147.5c18.5,24.9,43.4,64,43.5,115.7c0,5.2-0.3,10.4-0.8,15.6H588.8v-31.2h89
			c-3.8-28.9-13.9-56.8-33.8-76.6C643.9,170.9,653.2,165.9,667.4,147.5z M529.1,278.8v-31.2h-86.8c6.7-50.8,37.7-93.6,87.5-103.1
			c1.6-11.9,5.5-23.5,11.4-33.9c-81.8,12.2-132,72.4-132,152.7c0.1,83.3,67.6,150.8,151,150.7c65.2,0,123-42,143.2-103.9h-34.3
			c-25.9,60.3-95.7,88.1-156,62.3c-38.4-16.5-65.3-52-70.9-93.5H529.1z"/>
		<path class="st16" d="M574.5,367.2h-31.2V256.6c0-11.6-0.7-23.1,1-34.6c11.6-81.2,111.9-85.6,121.1-148.4
			c33,80.7-90.9,99.7-90.9,166L574.5,367.2z"/>
		<path class="st16" d="M654.1,0c42.6,92.3-72,100.1-110.8,177.6C537.7,54.3,646.4,90.9,654.1,0z"/>
	</g>
</g>
<g class="st13">
	<g class="st14">
		<path class="st15" d="M669.4,147.5c18.5,24.9,43.4,64,43.5,115.7c0,5.2-0.3,10.4-0.8,15.6H590.8v-31.2h89
			c-3.8-28.9-13.9-56.8-33.8-76.6C645.9,170.9,655.2,165.9,669.4,147.5z M531.1,278.8v-31.2h-86.8c6.7-50.8,37.7-93.6,87.5-103.1
			c1.6-11.9,5.5-23.5,11.4-33.9c-81.8,12.2-132,72.4-132,152.7c0.1,83.3,67.6,150.8,151,150.7c65.2,0,123-42,143.2-103.9h-34.3
			c-25.9,60.3-95.7,88.1-156,62.3c-38.4-16.5-65.3-52-70.9-93.5H531.1z"/>
		<path class="st15" d="M576.5,367.2h-31.2V256.6c0-11.6-0.7-23.1,1-34.6c11.6-81.2,111.9-85.6,121.1-148.4
			c33,80.7-90.9,99.7-90.9,166L576.5,367.2z"/>
		<path class="st15" d="M656.1,0c42.6,92.3-72,100.1-110.8,177.6C539.7,54.3,648.4,90.9,656.1,0z"/>
	</g>
	<g class="st14">
		<path class="st0" d="M669.4,147.5c18.5,24.9,43.4,64,43.5,115.7c0,5.2-0.3,10.4-0.8,15.6H590.8v-31.2h89
			c-3.8-28.9-13.9-56.8-33.8-76.6C645.9,170.9,655.2,165.9,669.4,147.5z M531.1,278.8v-31.2h-86.8c6.7-50.8,37.7-93.6,87.5-103.1
			c1.6-11.9,5.5-23.5,11.4-33.9c-81.8,12.2-132,72.4-132,152.7c0.1,83.3,67.6,150.8,151,150.7c65.2,0,123-42,143.2-103.9h-34.3
			c-25.9,60.3-95.7,88.1-156,62.3c-38.4-16.5-65.3-52-70.9-93.5H531.1z"/>
		<path class="st0" d="M576.5,367.2h-31.2V256.6c0-11.6-0.7-23.1,1-34.6c11.6-81.2,111.9-85.6,121.1-148.4
			c33,80.7-90.9,99.7-90.9,166L576.5,367.2z"/>
		<path class="st0" d="M656.1,0c42.6,92.3-72,100.1-110.8,177.6C539.7,54.3,648.4,90.9,656.1,0z"/>
	</g>
</g>
</svg>
