<?xml version="1.0" encoding="UTF-8" standalone="no"?><!DOCTYPE svg PUBLIC "-//W3C//DTD SVG 1.1//EN" "http://www.w3.org/Graphics/SVG/1.1/DTD/svg11.dtd"><svg width="100%" height="100%" viewBox="0 0 245 331" version="1.1" xmlns="http://www.w3.org/2000/svg" xmlns:xlink="http://www.w3.org/1999/xlink" xml:space="preserve" xmlns:serif="http://www.serif.com/" style="fill-rule:evenodd;clip-rule:evenodd;stroke-linejoin:round;stroke-miterlimit:1.41421;"><rect id="Artboard1" x="0" y="0" width="244.138" height="330.281" style="fill:none;"/><g id="OuterBeval"><g><path d="M119.31,323.7c-64.2,0 -116.475,-52.275 -116.475,-116.475c0,-30.6 9.45,-57.825 27.3,-78.675c18.075,-21.075 43.875,-34.65 74.625,-39.225l3.075,-0.45l-1.5,2.7c-4.5,8.175 -7.2,16.2 -8.55,25.35l-0.15,1.05l-1.05,0.225c-34.5,6.6 -59.4,35.475 -65.25,75.6l65.925,0l0,26.85l-65.925,0c6.525,43.2 44.025,75.525 87.975,75.525c35.625,0 67.725,-21.15 81.75,-53.85l0.375,-0.9l29.25,0l-0.675,2.025c-15.675,48 -60.15,80.25 -110.7,80.25Zm61.725,-186.825c1.2,-0.75 9.375,-6.375 18.9,-18.75l1.2,-1.575l1.2,1.65c14.325,19.275 33.375,49.5 33.45,89.1c0,3.975 -0.225,8.025 -0.6,12.075l-0.15,1.35l-95.325,0l0,-26.85l67.575,0c-3.375,-23.475 -12,-42.75 -25.05,-55.8" style="fill:#454545;"/><path d="M201.135,119.025c14.1,18.9 33.075,48.825 33.15,88.2c0,4.125 -0.225,8.025 -0.6,11.925l-15.525,0l-9.075,0l-67.875,0l0,-23.85l67.8,0c-2.925,-21.975 -10.575,-43.275 -25.725,-58.425c0,0 7.05,-3.75 17.85,-17.85Zm-105.375,100.125l0,-23.85l-66.15,0c5.1,-38.7 28.725,-71.325 66.675,-78.6c1.5,-10.65 4.725,-18.75 8.7,-25.875c-62.4,9.3 -100.65,55.2 -100.65,116.4c0,63.45 51.45,114.975 114.975,114.975c51,0 94.275,-33.225 109.275,-79.275l-26.1,0c-13.875,32.25 -45.9,54.75 -83.175,54.75c-45.9,0 -83.85,-34.275 -89.7,-78.6l66.15,0l0,0.075Z" style="fill:#454545;"/><path d="M105.06,288.075l0,-85.875c0,-1.95 0,-3.9 -0.075,-5.85c-0.075,-6.75 -0.15,-13.8 0.825,-20.7c4.8,-33.6 29.625,-50.625 51.6,-65.7c19.275,-13.2 37.575,-25.725 40.725,-47.4l0.825,-5.55l2.1,5.175c14.55,35.55 -9.75,55.875 -33.225,75.525c-18.45,15.45 -35.925,30.075 -35.925,51.6l0,98.775l-26.85,0Z" style="fill:#454545;"/><path d="M130.41,286.5l-23.85,0l0,-84.3c0,-8.85 -0.525,-17.625 0.75,-26.4c8.85,-61.875 85.275,-65.25 92.325,-113.1c25.125,61.5 -69.225,75.975 -69.225,126.525l0,97.275Z" style="fill:#454545;"/><path d="M105.06,142.05c-2.4,-52.35 21.825,-67.5 45.15,-82.05c18.825,-11.775 36.675,-22.875 39.3,-53.475l0.525,-5.775l2.4,5.25c9.375,20.325 9.675,36.675 1.05,51.45c-7.65,13.125 -21.6,23.475 -36.3,34.5c-18.675,13.95 -38.025,28.35 -49.2,50.7l-2.625,5.25l-0.3,-5.85Z" style="fill:#454545;"/><path d="M191.01,6.6c32.475,70.35 -54.9,76.275 -84.45,135.3c-4.275,-93.9 78.6,-66 84.45,-135.3Z" style="fill:#454545;"/></g><g><path d="M119.31,323.7c-64.2,0 -116.475,-52.275 -116.475,-116.475c0,-30.6 9.45,-57.825 27.3,-78.675c18.075,-21.075 43.875,-34.65 74.625,-39.225l3.075,-0.45l-1.5,2.7c-4.5,8.175 -7.2,16.2 -8.55,25.35l-0.15,1.05l-1.05,0.225c-34.5,6.6 -59.4,35.475 -65.25,75.6l65.925,0l0,26.85l-65.925,0c6.525,43.2 44.025,75.525 87.975,75.525c35.625,0 67.725,-21.15 81.75,-53.85l0.375,-0.9l29.25,0l-0.675,2.025c-15.675,48 -60.15,80.25 -110.7,80.25Zm61.725,-186.825c1.2,-0.75 9.375,-6.375 18.9,-18.75l1.2,-1.575l1.2,1.65c14.325,19.275 33.375,49.5 33.45,89.1c0,3.975 -0.225,8.025 -0.6,12.075l-0.15,1.35l-95.325,0l0,-26.85l67.575,0c-3.375,-23.475 -12,-42.75 -25.05,-55.8" style="fill:url(#_Radial1);fill-rule:nonzero;"/><path d="M201.135,119.025c14.1,18.9 33.075,48.825 33.15,88.2c0,4.125 -0.225,8.025 -0.6,11.925l-15.525,0l-9.075,0l-67.875,0l0,-23.85l67.8,0c-2.925,-21.975 -10.575,-43.275 -25.725,-58.425c0,0 7.05,-3.75 17.85,-17.85Zm-105.375,100.125l0,-23.85l-66.15,0c5.1,-38.7 28.725,-71.325 66.675,-78.6c1.5,-10.65 4.725,-18.75 8.7,-25.875c-62.4,9.3 -100.65,55.2 -100.65,116.4c0,63.45 51.45,114.975 114.975,114.975c51,0 94.275,-33.225 109.275,-79.275l-26.1,0c-13.875,32.25 -45.9,54.75 -83.175,54.75c-45.9,0 -83.85,-34.275 -89.7,-78.6l66.15,0l0,0.075Z" style="fill:url(#_Radial2);fill-rule:nonzero;"/><path d="M105.06,288.075l0,-85.875c0,-1.95 0,-3.9 -0.075,-5.85c-0.075,-6.75 -0.15,-13.8 0.825,-20.7c4.8,-33.6 29.625,-50.625 51.6,-65.7c19.275,-13.2 37.575,-25.725 40.725,-47.4l0.825,-5.55l2.1,5.175c14.55,35.55 -9.75,55.875 -33.225,75.525c-18.45,15.45 -35.925,30.075 -35.925,51.6l0,98.775l-26.85,0Z" style="fill:url(#_Radial3);fill-rule:nonzero;"/><path d="M130.41,286.5l-23.85,0l0,-84.3c0,-8.85 -0.525,-17.625 0.75,-26.4c8.85,-61.875 85.275,-65.25 92.325,-113.1c25.125,61.5 -69.225,75.975 -69.225,126.525l0,97.275Z" style="fill:url(#_Radial4);fill-rule:nonzero;"/><path d="M105.06,142.05c-2.4,-52.35 21.825,-67.5 45.15,-82.05c18.825,-11.775 36.675,-22.875 39.3,-53.475l0.525,-5.775l2.4,5.25c9.375,20.325 9.675,36.675 1.05,51.45c-7.65,13.125 -21.6,23.475 -36.3,34.5c-18.675,13.95 -38.025,28.35 -49.2,50.7l-2.625,5.25l-0.3,-5.85Z" style="fill:url(#_Radial5);fill-rule:nonzero;"/><path d="M191.01,6.6c32.475,70.35 -54.9,76.275 -84.45,135.3c-4.275,-93.9 78.6,-66 84.45,-135.3Z" style="fill:url(#_Radial6);fill-rule:nonzero;"/></g></g><g id="Icon"><g><path d="M201.135,119.025c14.1,18.9 33.075,48.825 33.15,88.2c0,4.125 -0.225,8.025 -0.6,11.925l-15.525,0l-9.075,0l-67.875,0l0,-23.85l67.8,0c-2.925,-21.975 -10.575,-43.275 -25.725,-58.425c0,0 7.05,-3.75 17.85,-17.85Zm-105.375,100.125l0,-23.85l-66.15,0c5.1,-38.7 28.725,-71.325 66.675,-78.6c1.5,-10.65 4.725,-18.75 8.7,-25.875c-62.4,9.3 -100.65,55.2 -100.65,116.4c0,63.45 51.45,114.975 114.975,114.975c51,0 94.275,-33.225 109.275,-79.275l-26.1,0c-13.875,32.25 -45.9,54.75 -83.175,54.75c-45.9,0 -83.85,-34.275 -89.7,-78.6l66.15,0l0,0.075Z" style="fill:url(#_Linear7);"/><path d="M130.41,286.5l-23.85,0l0,-84.3c0,-8.85 -0.525,-17.625 0.75,-26.4c8.85,-61.875 85.275,-65.25 92.325,-113.1c25.125,61.5 -69.225,75.975 -69.225,126.525l0,97.275Z" style="fill:#454545;"/><path d="M191.01,6.6c32.475,70.35 -54.9,76.275 -84.45,135.3c-4.275,-93.9 78.6,-66 84.45,-135.3Z" style="fill:#454545;"/></g><g><path d="M201.135,119.025c14.1,18.9 33.075,48.825 33.15,88.2c0,4.125 -0.225,8.025 -0.6,11.925l-15.525,0l-9.075,0l-67.875,0l0,-23.85l67.8,0c-2.925,-21.975 -10.575,-43.275 -25.725,-58.425c0,0 7.05,-3.75 17.85,-17.85Zm-105.375,100.125l0,-23.85l-66.15,0c5.1,-38.7 28.725,-71.325 66.675,-78.6c1.5,-10.65 4.725,-18.75 8.7,-25.875c-62.4,9.3 -100.65,55.2 -100.65,116.4c0,63.45 51.45,114.975 114.975,114.975c51,0 94.275,-33.225 109.275,-79.275l-26.1,0c-13.875,32.25 -45.9,54.75 -83.175,54.75c-45.9,0 -83.85,-34.275 -89.7,-78.6l66.15,0l0,0.075Z" style="fill:url(#_Linear8);fill-rule:nonzero;"/><path d="M130.41,286.5l-23.85,0l0,-84.3c0,-8.85 -0.525,-17.625 0.75,-26.4c8.85,-61.875 85.275,-65.25 92.325,-113.1c25.125,61.5 -69.225,75.975 -69.225,126.525l0,97.275Z" style="fill:url(#_Linear9);fill-rule:nonzero;"/><path d="M191.01,6.6c32.475,70.35 -54.9,76.275 -84.45,135.3c-4.275,-93.9 78.6,-66 84.45,-135.3Z" style="fill:url(#_Linear10);fill-rule:nonzero;"/></g></g><clipPath id="_clip11"><path id="Highlight" d="M201.135,119.025c14.1,18.9 33.075,48.825 33.15,88.2c0,4.125 -0.225,8.025 -0.6,11.925l-15.525,0l-9.075,0l-67.875,0l0,-23.85l67.8,0c-2.925,-21.975 -10.575,-43.275 -25.725,-58.425c0,0 7.05,-3.75 17.85,-17.85Zm-105.375,100.125l-13.65,-32.925l-66.15,0c18.75,-29.625 42.375,-62.25 80.4,-69.45c1.5,-10.65 4.725,-18.75 8.7,-25.875c-62.4,9.3 -100.65,55.2 -100.65,116.4c0,63.45 51.45,114.975 114.975,114.975c51,0 94.275,-33.225 109.275,-79.275l-26.1,0c-13.875,32.25 -45.9,54.75 -83.175,54.75c-45.9,0 -83.85,-34.275 -89.7,-78.6l66.075,0Zm34.05,66.75l0,-96.675c0,-22.5 18.675,-38.1 36.675,-53.175c11.475,-9.6 23.325,-19.575 30.3,-31.125c3.75,-6.225 5.85,-12.375 6.375,-18.9c0.6,-6.675 -0.525,-13.575 -3.3,-21c-4.2,21.3 -22.2,33.675 -41.25,46.725c-11.175,7.65 -22.65,15.525 -31.95,25.575c-10.5,11.325 -16.575,24 -18.675,38.625c-0.975,6.75 -0.9,13.725 -0.825,20.4c0,1.95 0.075,3.9 0.075,5.85l0,83.775l22.575,0l0,-0.075Zm26.1,-195.675c14.55,-10.8 28.275,-21.075 35.7,-33.825c7.95,-13.65 7.95,-28.8 -0.225,-47.4c-3.375,29.85 -21.225,41.025 -40.05,52.8c-22.5,14.1 -45.825,28.575 -44.25,77.85c11.625,-21.75 31.35,-36.45 48.825,-49.425Z"/></clipPath><g clip-path="url(#_clip11)"><path d="M102.435,288.9c0,-8.85 -6.45,-164.475 -2.625,-172.425c120.375,-249 190.35,-118.5 94.575,7.425c-73.875,24.6 -87.6,90.3 -87.6,165" style="fill:url(#_Linear12);fill-rule:nonzero;"/></g><defs><radialGradient id="_Radial1" cx="0" cy="0" r="1" gradientUnits="userSpaceOnUse" gradientTransform="matrix(214.125,0,0,214.125,67.6019,285.077)"><stop offset="0" style="stop-color:#4d285a;stop-opacity:1"/><stop offset="0.03" style="stop-color:#4d285a;stop-opacity:1"/><stop offset="0.29" style="stop-color:#785e9e;stop-opacity:1"/><stop offset="0.48" style="stop-color:#ad86bc;stop-opacity:1"/><stop offset="0.65" style="stop-color:#c6afd4;stop-opacity:1"/><stop offset="0.69" style="stop-color:#c8acce;stop-opacity:1"/><stop offset="0.74" style="stop-color:#cfa4be;stop-opacity:1"/><stop offset="0.76" style="stop-color:#d49eb2;stop-opacity:1"/><stop offset="0.88" style="stop-color:#e3bbac;stop-opacity:1"/><stop offset="1" style="stop-color:#f8cf87;stop-opacity:1"/></radialGradient><radialGradient id="_Radial2" cx="0" cy="0" r="1" gradientUnits="userSpaceOnUse" gradientTransform="matrix(214.125,0,0,214.125,67.6019,285.077)"><stop offset="0" style="stop-color:#4d285a;stop-opacity:1"/><stop offset="0.03" style="stop-color:#4d285a;stop-opacity:1"/><stop offset="0.29" style="stop-color:#785e9e;stop-opacity:1"/><stop offset="0.48" style="stop-color:#ad86bc;stop-opacity:1"/><stop offset="0.65" style="stop-color:#c6afd4;stop-opacity:1"/><stop offset="0.69" style="stop-color:#c8acce;stop-opacity:1"/><stop offset="0.74" style="stop-color:#cfa4be;stop-opacity:1"/><stop offset="0.76" style="stop-color:#d49eb2;stop-opacity:1"/><stop offset="0.88" style="stop-color:#e3bbac;stop-opacity:1"/><stop offset="1" style="stop-color:#f8cf87;stop-opacity:1"/></radialGradient><radialGradient id="_Radial3" cx="0" cy="0" r="1" gradientUnits="userSpaceOnUse" gradientTransform="matrix(214.125,0,0,214.125,67.6019,285.077)"><stop offset="0" style="stop-color:#4d285a;stop-opacity:1"/><stop offset="0.03" style="stop-color:#4d285a;stop-opacity:1"/><stop offset="0.29" style="stop-color:#785e9e;stop-opacity:1"/><stop offset="0.48" style="stop-color:#ad86bc;stop-opacity:1"/><stop offset="0.65" style="stop-color:#c6afd4;stop-opacity:1"/><stop offset="0.69" style="stop-color:#c8acce;stop-opacity:1"/><stop offset="0.74" style="stop-color:#cfa4be;stop-opacity:1"/><stop offset="0.76" style="stop-color:#d49eb2;stop-opacity:1"/><stop offset="0.88" style="stop-color:#e3bbac;stop-opacity:1"/><stop offset="1" style="stop-color:#f8cf87;stop-opacity:1"/></radialGradient><radialGradient id="_Radial4" cx="0" cy="0" r="1" gradientUnits="userSpaceOnUse" gradientTransform="matrix(214.125,0,0,214.125,67.6019,285.077)"><stop offset="0" style="stop-color:#4d285a;stop-opacity:1"/><stop offset="0.03" style="stop-color:#4d285a;stop-opacity:1"/><stop offset="0.29" style="stop-color:#785e9e;stop-opacity:1"/><stop offset="0.48" style="stop-color:#ad86bc;stop-opacity:1"/><stop offset="0.65" style="stop-color:#c6afd4;stop-opacity:1"/><stop offset="0.69" style="stop-color:#c8acce;stop-opacity:1"/><stop offset="0.74" style="stop-color:#cfa4be;stop-opacity:1"/><stop offset="0.76" style="stop-color:#d49eb2;stop-opacity:1"/><stop offset="0.88" style="stop-color:#e3bbac;stop-opacity:1"/><stop offset="1" style="stop-color:#f8cf87;stop-opacity:1"/></radialGradient><radialGradient id="_Radial5" cx="0" cy="0" r="1" gradientUnits="userSpaceOnUse" gradientTransform="matrix(214.125,0,0,214.125,67.6019,285.077)"><stop offset="0" style="stop-color:#4d285a;stop-opacity:1"/><stop offset="0.03" style="stop-color:#4d285a;stop-opacity:1"/><stop offset="0.29" style="stop-color:#785e9e;stop-opacity:1"/><stop offset="0.48" style="stop-color:#ad86bc;stop-opacity:1"/><stop offset="0.65" style="stop-color:#c6afd4;stop-opacity:1"/><stop offset="0.69" style="stop-color:#c8acce;stop-opacity:1"/><stop offset="0.74" style="stop-color:#cfa4be;stop-opacity:1"/><stop offset="0.76" style="stop-color:#d49eb2;stop-opacity:1"/><stop offset="0.88" style="stop-color:#e3bbac;stop-opacity:1"/><stop offset="1" style="stop-color:#f8cf87;stop-opacity:1"/></radialGradient><radialGradient id="_Radial6" cx="0" cy="0" r="1" gradientUnits="userSpaceOnUse" gradientTransform="matrix(214.125,0,0,214.125,67.6019,285.077)"><stop offset="0" style="stop-color:#4d285a;stop-opacity:1"/><stop offset="0.03" style="stop-color:#4d285a;stop-opacity:1"/><stop offset="0.29" style="stop-color:#785e9e;stop-opacity:1"/><stop offset="0.48" style="stop-color:#ad86bc;stop-opacity:1"/><stop offset="0.65" style="stop-color:#c6afd4;stop-opacity:1"/><stop offset="0.69" style="stop-color:#c8acce;stop-opacity:1"/><stop offset="0.74" style="stop-color:#cfa4be;stop-opacity:1"/><stop offset="0.76" style="stop-color:#d49eb2;stop-opacity:1"/><stop offset="0.88" style="stop-color:#e3bbac;stop-opacity:1"/><stop offset="1" style="stop-color:#f8cf87;stop-opacity:1"/></radialGradient><linearGradient id="_Linear7" x1="0" y1="0" x2="1" y2="0" gradientUnits="userSpaceOnUse" gradientTransform="matrix(229.92,0,0,229.92,4.35961,206.498)"><stop offset="0" style="stop-color:#4f3387;stop-opacity:1"/><stop offset="0.02" style="stop-color:#4f3387;stop-opacity:1"/><stop offset="0.03" style="stop-color:#4f3387;stop-opacity:1"/><stop offset="0.29" style="stop-color:#785e9e;stop-opacity:1"/><stop offset="0.48" style="stop-color:#ad86bc;stop-opacity:1"/><stop offset="0.65" style="stop-color:#c6afd4;stop-opacity:1"/><stop offset="0.69" style="stop-color:#c8acce;stop-opacity:1"/><stop offset="0.74" style="stop-color:#cfa4be;stop-opacity:1"/><stop offset="0.76" style="stop-color:#d49eb2;stop-opacity:1"/><stop offset="0.88" style="stop-color:#e3bbac;stop-opacity:1"/><stop offset="1" style="stop-color:#e3bbac;stop-opacity:1"/></linearGradient><linearGradient id="_Linear8" x1="0" y1="0" x2="1" y2="0" gradientUnits="userSpaceOnUse" gradientTransform="matrix(96.2334,-151.419,151.419,96.2334,107.227,224.315)"><stop offset="0" style="stop-color:#4f3387;stop-opacity:1"/><stop offset="0.02" style="stop-color:#4f3387;stop-opacity:1"/><stop offset="0.03" style="stop-color:#4f3387;stop-opacity:1"/><stop offset="0.29" style="stop-color:#785e9e;stop-opacity:1"/><stop offset="0.44" style="stop-color:#8468a5;stop-opacity:1"/><stop offset="0.56" style="stop-color:#ad86bc;stop-opacity:1"/><stop offset="0.65" style="stop-color:#c6afd4;stop-opacity:1"/><stop offset="0.69" style="stop-color:#c8acce;stop-opacity:1"/><stop offset="0.74" style="stop-color:#cfa4be;stop-opacity:1"/><stop offset="0.76" style="stop-color:#d49eb2;stop-opacity:1"/><stop offset="0.88" style="stop-color:#e3bbac;stop-opacity:1"/><stop offset="1" style="stop-color:#e3bbac;stop-opacity:1"/></linearGradient><linearGradient id="_Linear9" x1="0" y1="0" x2="1" y2="0" gradientUnits="userSpaceOnUse" gradientTransform="matrix(96.2334,-151.419,151.419,96.2334,107.227,224.315)"><stop offset="0" style="stop-color:#4f3387;stop-opacity:1"/><stop offset="0.02" style="stop-color:#4f3387;stop-opacity:1"/><stop offset="0.03" style="stop-color:#4f3387;stop-opacity:1"/><stop offset="0.29" style="stop-color:#785e9e;stop-opacity:1"/><stop offset="0.44" style="stop-color:#8468a5;stop-opacity:1"/><stop offset="0.56" style="stop-color:#ad86bc;stop-opacity:1"/><stop offset="0.65" style="stop-color:#c6afd4;stop-opacity:1"/><stop offset="0.69" style="stop-color:#c8acce;stop-opacity:1"/><stop offset="0.74" style="stop-color:#cfa4be;stop-opacity:1"/><stop offset="0.76" style="stop-color:#d49eb2;stop-opacity:1"/><stop offset="0.88" style="stop-color:#e3bbac;stop-opacity:1"/><stop offset="1" style="stop-color:#e3bbac;stop-opacity:1"/></linearGradient><linearGradient id="_Linear10" x1="0" y1="0" x2="1" y2="0" gradientUnits="userSpaceOnUse" gradientTransform="matrix(96.2334,-151.419,151.419,96.2334,107.227,224.315)"><stop offset="0" style="stop-color:#4f3387;stop-opacity:1"/><stop offset="0.02" style="stop-color:#4f3387;stop-opacity:1"/><stop offset="0.03" style="stop-color:#4f3387;stop-opacity:1"/><stop offset="0.29" style="stop-color:#785e9e;stop-opacity:1"/><stop offset="0.44" style="stop-color:#8468a5;stop-opacity:1"/><stop offset="0.56" style="stop-color:#ad86bc;stop-opacity:1"/><stop offset="0.65" style="stop-color:#c6afd4;stop-opacity:1"/><stop offset="0.69" style="stop-color:#c8acce;stop-opacity:1"/><stop offset="0.74" style="stop-color:#cfa4be;stop-opacity:1"/><stop offset="0.76" style="stop-color:#d49eb2;stop-opacity:1"/><stop offset="0.88" style="stop-color:#e3bbac;stop-opacity:1"/><stop offset="1" style="stop-color:#e3bbac;stop-opacity:1"/></linearGradient><linearGradient id="_Linear12" x1="0" y1="0" x2="1" y2="0" gradientUnits="userSpaceOnUse" gradientTransform="matrix(67.9563,-117.669,117.669,67.9563,132.778,149.507)"><stop offset="0" style="stop-color:#fff;stop-opacity:0"/><stop offset="0.31" style="stop-color:#fff;stop-opacity:0"/><stop offset="0.55" style="stop-color:#fffacd;stop-opacity:1"/><stop offset="0.92" style="stop-color:#fff;stop-opacity:0.305882"/><stop offset="1" style="stop-color:#fff;stop-opacity:0"/></linearGradient></defs></svg>